<?xml version="1.0" encoding="UTF-8" standalone="no"?>
<svg
   xmlns:dc="http://purl.org/dc/elements/1.1/"
   xmlns:cc="http://creativecommons.org/ns#"
   xmlns:rdf="http://www.w3.org/1999/02/22-rdf-syntax-ns#"
   xmlns:svg="http://www.w3.org/2000/svg"
   xmlns="http://www.w3.org/2000/svg"
   xmlns:sodipodi="http://sodipodi.sourceforge.net/DTD/sodipodi-0.dtd"
   xmlns:inkscape="http://www.inkscape.org/namespaces/inkscape"
   width="331.16736mm"
   height="267.44196mm"
   viewBox="0 0 331.16737 267.44195"
   version="1.1"
   id="svg8"
   inkscape:version="1.0.2-2 (e86c870879, 2021-01-15)"
   sodipodi:docname="Course Room Brand.svg"
   inkscape:export-filename="E:\Web Workspace\CourseRoom\svgs\Course Room Brand Black.png"
   inkscape:export-xdpi="100"
   inkscape:export-ydpi="100">
  <defs
     id="defs2" />
  <sodipodi:namedview
     id="base"
     pagecolor="#ffffff"
     bordercolor="#666666"
     borderopacity="1.0"
     inkscape:pageopacity="0.0"
     inkscape:pageshadow="2"
     inkscape:zoom="0.49497475"
     inkscape:cx="853.46544"
     inkscape:cy="516.05442"
     inkscape:document-units="mm"
     inkscape:current-layer="layer3"
     inkscape:document-rotation="0"
     showgrid="false"
     inkscape:pagecheckerboard="true"
     inkscape:window-width="1366"
     inkscape:window-height="715"
     inkscape:window-x="-8"
     inkscape:window-y="-8"
     inkscape:window-maximized="1" />
  <metadata
     id="metadata5">
    <rdf:RDF>
      <cc:Work
         rdf:about="">
        <dc:format>image/svg+xml</dc:format>
        <dc:type
           rdf:resource="http://purl.org/dc/dcmitype/StillImage" />
        <dc:title></dc:title>
      </cc:Work>
    </rdf:RDF>
  </metadata>
  <g
     inkscape:groupmode="layer"
     id="layer3"
     inkscape:label="Dibujo Vectorizado"
     style="display:inline;opacity:1"
     transform="translate(19.628834,-20.996516)"
     sodipodi:insensitive="true">
    <g
       id="g1127"
       transform="translate(-144.86008,-28.865109)">
      <path
         style="fill:none;stroke:#0e1e40;stroke-width:8;stroke-linecap:round;stroke-linejoin:round;stroke-miterlimit:4;stroke-dasharray:none;stroke-opacity:1"
         d="m 210.84323,179.55369 c 0,0 -2.49996,15.49061 1.90331,31.58923 3.18047,11.628 10.81012,22.13196 19.64431,30.20146 9.94302,9.08235 23.19806,14.82491 35.93433,17.95292 12.45989,3.06013 24.87228,2.29442 36.78592,-1.10151 13.35932,-3.808 25.88667,-11.53743 35.46855,-21.42741 8.95986,-9.24797 14.15563,-22.03386 16.74071,-34.5102 2.16188,-10.43384 -4.21146,-33.8001 -4.21146,-33.8001"
         id="path1103"
         sodipodi:nodetypes="cssssssc" />
      <path
         style="fill:none;stroke:#0e1e40;stroke-width:8;stroke-linecap:round;stroke-linejoin:round;stroke-miterlimit:4;stroke-dasharray:none;stroke-opacity:1"
         d="m 219.43973,224.3328 c 0,0 2.91354,-6.9503 13.81349,-18.53033 9.49431,-10.43041 22.93728,-18.96073 38.43894,-21.66322 10.60018,-1.75625 21.29752,-2.18934 31.93342,-0.66424 12.90524,2.33822 25.9887,9.68506 33.2619,17.01564 4.37945,4.36779 13.49644,15.33375 13.49644,15.33375"
         id="path1097"
         sodipodi:nodetypes="cccccc" />
      <circle
         style="fill:none;fill-rule:evenodd;stroke:#0e1e40;stroke-width:8.00513;stroke-linecap:square;stroke-linejoin:round;stroke-miterlimit:4;stroke-dasharray:none;stroke-opacity:1;paint-order:markers fill stroke"
         id="path42"
         sodipodi:type="arc"
         sodipodi:cx="252.16579"
         sodipodi:cy="127.6136"
         sodipodi:rx="32.391033"
         sodipodi:ry="30.344059"
         sodipodi:start="4.2119682"
         sodipodi:end="4.2046572"
         sodipodi:open="true"
         sodipodi:arc-type="arc"
         d="m 236.62474,100.99031 a 32.391033,30.344059 0 0 1 43.93186,12.01573 32.391033,30.344059 0 0 1 -12.74598,41.17746 32.391033,30.344059 0 0 1 -43.97846,-11.86522 32.391033,30.344059 0 0 1 12.58522,-41.22082"
         transform="matrix(0.99734046,0.07288351,-0.05743846,0.99834905,0,0)" />
      <circle
         style="fill:none;fill-rule:evenodd;stroke:#0e1e40;stroke-width:8.00513;stroke-linecap:square;stroke-linejoin:round;stroke-miterlimit:4;stroke-dasharray:none;stroke-opacity:1;paint-order:markers fill stroke"
         id="path42-8"
         sodipodi:type="arc"
         sodipodi:cx="338.4733"
         sodipodi:cy="121.19276"
         sodipodi:rx="32.391033"
         sodipodi:ry="30.344059"
         sodipodi:start="4.2119682"
         sodipodi:end="4.2046572"
         sodipodi:open="true"
         sodipodi:arc-type="arc"
         transform="matrix(0.99734046,0.07288351,-0.05743846,0.99834905,0,0)"
         d="m 322.93225,94.569463 a 32.391033,30.344059 0 0 1 43.93186,12.015737 32.391033,30.344059 0 0 1 -12.74598,41.17745 32.391033,30.344059 0 0 1 -43.97846,-11.86521 32.391033,30.344059 0 0 1 12.58522,-41.220826" />
      <circle
         style="fill:none;fill-rule:evenodd;stroke:#68c2e8;stroke-width:7.87934;stroke-linecap:round;stroke-linejoin:round;stroke-miterlimit:4;stroke-dasharray:none;stroke-opacity:1;paint-order:markers fill stroke"
         id="path42-8-2"
         sodipodi:type="arc"
         sodipodi:cx="248.44267"
         sodipodi:cy="128.63779"
         sodipodi:rx="18.055157"
         sodipodi:ry="16.605587"
         sodipodi:start="3.8873009"
         sodipodi:end="3.0402197"
         sodipodi:open="true"
         sodipodi:arc-type="arc"
         transform="matrix(0.99743705,0.07154943,-0.05851145,0.99828674,0,0)"
         d="m 235.17922,117.37102 a 18.055157,16.605587 0 0 1 22.45221,-3.02748 18.055157,16.605587 0 0 1 7.93749,19.55196 18.055157,16.605587 0 0 1 -19.11544,11.24679 18.055157,16.605587 0 0 1 -15.97327,-14.82403" />
      <circle
         style="fill:none;fill-rule:evenodd;stroke:#68c2e8;stroke-width:7.87934;stroke-linecap:round;stroke-linejoin:round;stroke-miterlimit:4;stroke-dasharray:none;stroke-opacity:1;paint-order:markers fill stroke"
         id="path42-8-2-4"
         sodipodi:type="arc"
         sodipodi:cx="335.09955"
         sodipodi:cy="121.37017"
         sodipodi:rx="18.055157"
         sodipodi:ry="16.605587"
         sodipodi:start="3.8873009"
         sodipodi:end="3.0402197"
         sodipodi:open="true"
         sodipodi:arc-type="arc"
         transform="matrix(0.99743706,0.07154943,-0.05851145,0.99828674,0,0)"
         d="m 321.83609,110.10341 a 18.055157,16.605587 0 0 1 22.45222,-3.02749 18.055157,16.605587 0 0 1 7.93748,19.55197 18.055157,16.605587 0 0 1 -19.11544,11.24678 18.055157,16.605587 0 0 1 -15.97327,-14.82402" />
      <circle
         style="opacity:0.941176;fill:none;fill-rule:evenodd;stroke:#68c2e8;stroke-width:5.41349;stroke-linecap:round;stroke-linejoin:round;stroke-miterlimit:4;stroke-dasharray:none;stroke-opacity:1;paint-order:markers fill stroke"
         id="path42-8-2-4-7"
         sodipodi:type="arc"
         sodipodi:cx="-349.17825"
         sodipodi:cy="226.3914"
         sodipodi:rx="12.25294"
         sodipodi:ry="11.550227"
         sodipodi:start="3.4589632"
         sodipodi:end="4.5150288"
         sodipodi:arc-type="arc"
         transform="matrix(-0.97622421,0.21676321,-0.07773375,0.99697415,0,0)"
         d="m -360.81927,222.78693 a 12.25294,11.550227 0 0 1 9.23844,-7.72154"
         sodipodi:open="true" />
      <circle
         style="opacity:0.941176;fill:none;fill-rule:evenodd;stroke:#68c2e8;stroke-width:5.41349;stroke-linecap:round;stroke-linejoin:round;stroke-miterlimit:4;stroke-dasharray:none;stroke-opacity:1;paint-order:markers fill stroke"
         id="path42-8-2-4-7-0"
         sodipodi:type="arc"
         sodipodi:cx="-258.69345"
         sodipodi:cy="208.34898"
         sodipodi:rx="12.25294"
         sodipodi:ry="11.550227"
         sodipodi:start="3.4589632"
         sodipodi:end="4.5150288"
         sodipodi:arc-type="arc"
         transform="matrix(-0.97622421,0.21676321,-0.07773375,0.99697415,0,0)"
         sodipodi:open="true"
         d="m -270.33447,204.74451 a 12.25294,11.550227 0 0 1 9.23844,-7.72154" />
      <path
         style="fill:none;stroke:#68c2e8;stroke-width:7.38311;stroke-linecap:round;stroke-linejoin:round;stroke-miterlimit:4;stroke-dasharray:none;stroke-opacity:1;paint-order:fill markers stroke"
         d="m 285.82228,193.61313 -11.50425,-18.30044 12.13636,-10.80829 10.77409,10.93112 z"
         id="path971"
         sodipodi:nodetypes="ccccc" />
      <path
         style="fill:none;stroke:#68c2e8;stroke-width:8;stroke-linecap:butt;stroke-linejoin:round;stroke-miterlimit:4;stroke-dasharray:none;stroke-opacity:1"
         d="m 244.55059,93.530112 0.94494,-16.044995 -22.67857,-6.047618 57.83036,-17.575892 58.26761,17.898516 -23.11583,6.669935 0.18899,14.741073"
         id="path973"
         sodipodi:nodetypes="ccccccc" />
      <path
         style="fill:none;stroke:#68c2e8;stroke-width:8;stroke-linecap:round;stroke-linejoin:round;stroke-miterlimit:4;stroke-dasharray:none;stroke-opacity:1"
         d="m 247.89248,79.779952 c 0,0 19.90344,-5.021643 30.06782,-5.07812 11.45367,-0.06364 33.94323,5.345391 33.94323,5.345391"
         id="path975"
         sodipodi:nodetypes="csc" />
      <path
         style="fill:none;stroke:#68c2e8;stroke-width:8;stroke-linecap:round;stroke-linejoin:round;stroke-miterlimit:4;stroke-dasharray:none;stroke-opacity:1"
         d="m 222.81696,71.437499 0.48673,11.549689"
         id="path977"
         sodipodi:nodetypes="cc" />
      <path
         style="fill:none;stroke:#68c2e8;stroke-width:8;stroke-linecap:round;stroke-linejoin:round;stroke-miterlimit:4;stroke-dasharray:none;stroke-opacity:1"
         d="m 223.38393,252.67708 2.92931,10.67783"
         id="path979"
         sodipodi:nodetypes="cc" />
      <path
         style="fill:none;stroke:#68c2e8;stroke-width:8;stroke-linecap:round;stroke-linejoin:round;stroke-miterlimit:4;stroke-dasharray:none;stroke-opacity:1"
         d="m 234.01452,252.72433 2.92931,10.67783"
         id="path979-9"
         sodipodi:nodetypes="cc" />
      <path
         style="fill:none;stroke:#68c2e8;stroke-width:7.54183;stroke-linecap:round;stroke-linejoin:round;stroke-miterlimit:4;stroke-dasharray:none;stroke-opacity:1"
         d="m 244.55533,252.30607 3.20333,11.24598"
         id="path979-9-8"
         sodipodi:nodetypes="cc" />
      <path
         style="opacity:0.829412;fill:none;stroke:#68c2e8;stroke-width:7.54183;stroke-linecap:round;stroke-linejoin:round;stroke-miterlimit:4;stroke-dasharray:none;stroke-opacity:1"
         d="m 346.06014,253.65247 -3.20333,11.24598"
         id="path979-9-8-1"
         sodipodi:nodetypes="cc" />
      <path
         style="opacity:0.829412;fill:none;stroke:#68c2e8;stroke-width:7.54183;stroke-linecap:round;stroke-linejoin:round;stroke-miterlimit:4;stroke-dasharray:none;stroke-opacity:1"
         d="m 333.96491,253.67343 -3.20333,11.24598"
         id="path979-9-8-9"
         sodipodi:nodetypes="cc" />
      <path
         style="opacity:0.829412;fill:none;stroke:#68c2e8;stroke-width:7.54183;stroke-linecap:round;stroke-linejoin:round;stroke-miterlimit:4;stroke-dasharray:none;stroke-opacity:1"
         d="m 323.44839,253.57419 -3.20333,11.24598"
         id="path979-9-8-0"
         sodipodi:nodetypes="cc" />
      <circle
         style="fill:none;fill-rule:evenodd;stroke:#68c2e8;stroke-width:6.44047;stroke-linecap:round;stroke-linejoin:round;stroke-miterlimit:4;stroke-dasharray:none;stroke-opacity:1;paint-order:fill markers stroke"
         id="path1101"
         sodipodi:type="arc"
         sodipodi:cx="223.29829"
         sodipodi:cy="91.860825"
         sodipodi:rx="7.2515235"
         sodipodi:ry="7.623982"
         sodipodi:start="3.4589633"
         sodipodi:end="6.1342767"
         sodipodi:arc-type="arc"
         d="m 216.40892,89.481612 a 7.2515235,7.623982 0 0 1 7.49946,-5.21774 7.2515235,7.623982 0 0 1 6.56119,6.465867"
         sodipodi:open="true" />
      <path
         style="fill:none;stroke:#0e1e40;stroke-width:8;stroke-linecap:round;stroke-linejoin:round;stroke-miterlimit:4;stroke-dasharray:none;stroke-opacity:1"
         d="m 211.14292,115.7277 c 0,0 -4.55719,-11.27659 -6.1472,-22.183366 -0.9998,-6.858217 13.04515,6.076979 19.77795,5.078121 13.02681,-1.932618 22.44747,-0.783909 33.67596,-0.80181 10.21619,-0.01629 14.52148,7.410275 20.57976,8.285355 7.45115,1.07627 13.71659,-6.620883 21.11428,-8.018086 8.40451,-1.587359 17.10653,-0.09511 25.65789,-0.267269 5.97047,-0.120196 11.97732,0.171949 17.90706,-0.534537 4.44511,-0.529603 13.21907,-7.610802 13.14205,-2.764407 -0.1271,7.997219 -1.57119,16.519289 -1.57119,16.519289"
         id="path1105"
         sodipodi:nodetypes="cssssasasc" />
    </g>
    <text
       xml:space="preserve"
       style="font-style:normal;font-variant:normal;font-weight:bold;font-stretch:normal;font-size:50.8px;line-height:1.25;font-family:'Kristen ITC';-inkscape-font-specification:'Kristen ITC Bold';text-align:center;text-anchor:middle;fill:#68c2e8;fill-opacity:1;stroke:none;stroke-width:0.865;stroke-linejoin:round;stroke-miterlimit:4;stroke-dasharray:none;stroke-opacity:1"
       x="146.28972"
       y="282.38614"
       id="text1131"><tspan
         sodipodi:role="line"
         id="tspan1129"
         x="146.28972"
         y="282.38614"
         style="font-style:normal;font-variant:normal;font-weight:bold;font-stretch:normal;font-size:50.8px;font-family:'Kristen ITC';-inkscape-font-specification:'Kristen ITC Bold';text-align:center;text-anchor:middle;fill:#68c2e8;fill-opacity:1;stroke:none;stroke-width:0.865;stroke-linejoin:round;stroke-miterlimit:4;stroke-dasharray:none;stroke-opacity:1">Course Room</tspan></text>
  </g>
</svg>
